<svg id="Capa_1" enable-background="new 0 0 512 512" height="512" viewBox="0 0 512 512" width="512" xmlns="http://www.w3.org/2000/svg"><g><path d="m34.989 422.211h122.885c3 0 5.347-2.547 5.157-5.54-2.856-44.978-40.24-80.574-85.939-80.574-33.321 0-62.203 18.935-76.52 46.623-1.032 1.995-.641 4.433.947 6.022z" fill="#e27f86"/><path d="m77.093 365.903c-31.098 0-56.308 25.21-56.308 56.308 0 31.099 25.21 56.309 56.308 56.309 31.099 0 56.309-25.21 56.309-56.309-.001-31.098-25.211-56.308-56.309-56.308z" fill="#6a61b2"/><path d="m117.41 382.921c1.699 5.367 2.621 11.079 2.621 17.008 0 31.099-25.21 56.309-56.309 56.309-15.81 0-30.089-6.525-40.317-17.018 7.212 22.784 28.518 39.3 53.688 39.3 31.099 0 56.309-25.21 56.309-56.309-.001-15.288-6.102-29.144-15.992-39.29z" fill="#514898"/><path d="m455.691 365.903c-31.098 0-56.308 25.21-56.308 56.308 0 31.099 25.21 56.309 56.308 56.309 31.099 0 56.309-25.21 56.309-56.309 0-31.098-25.21-56.308-56.309-56.308z" fill="#6a61b2"/><path d="m496.009 382.921c1.699 5.367 2.621 11.079 2.621 17.008 0 31.099-25.21 56.309-56.309 56.309-15.81 0-30.089-6.525-40.317-17.018 7.212 22.784 28.518 39.3 53.688 39.3 31.099 0 56.309-25.21 56.309-56.309-.001-15.288-6.103-29.144-15.992-39.29z" fill="#514898"/><path d="m415.721 66.007 5.138-10.008-15.993-3.98-28.485 5.023 45.656 258.925 28.485-5.023-38.67-219.31c-1.541-8.736-.182-17.735 3.869-25.627z" fill="#6a61b2"/><path d="m331.704 78.893c2.764 7.595 11.162 11.511 18.757 8.746l71.864-26.156c4.287-1.56 6.497-6.3 4.937-10.587l-4.36-11.98c-1.56-4.287-6.3-6.497-10.587-4.937l-71.865 26.157c-7.595 2.764-11.51 11.162-8.746 18.757z" fill="#8a94db"/><path d="m475.131 415.729-26.987-153.052c-.313-1.776-2.006-2.961-3.781-2.648l-33.954 5.987c-1.775.313-2.961 2.006-2.648 3.782l3.883 22.022c.947 5.369-.785 10.862-4.64 14.717l-106.037 106.036 21.038 21.038 89.441-89.441c3.376-3.376 9.155-1.554 9.984 3.148l13.853 78.563.245-.043c1.715 9.591 10.08 16.876 20.163 16.876 11.324 0 20.503-9.18 20.503-20.503 0-2.268-.383-4.443-1.063-6.482z" fill="#e27f86"/><path d="m77.093 401.708c-11.572 0-20.905 9.587-20.49 21.252.396 11.11 9.864 19.755 20.982 19.755h68.428c.308 0 .614.046.908.136l58.914 18.051c.981.3 2.001.453 3.026.453h120.123c6.072 0 11.788-2.866 15.421-7.731l28.138-37.684c4.385-5.872.194-14.231-7.135-14.231h-288.315z" fill="#d6e0f4"/><path d="m368.16 402.14-23.755 31.814c-3.633 4.865-9.349 7.731-15.421 7.731h-120.123c-1.026 0-2.046-.153-3.026-.453l-58.914-18.051c-.294-.09-.6-.136-.908-.136h-68.428c-7.833 0-14.832-4.302-18.431-10.724-1.735 3.139-2.688 6.769-2.55 10.64.396 11.11 9.864 19.755 20.982 19.755h68.428c.308 0 .614.046.908.136l58.914 18.051c.981.301 2.001.453 3.026.453h120.123c6.072 0 11.788-2.866 15.421-7.731l28.138-37.684c3.798-5.089 1.155-12.034-4.384-13.801z" fill="#b8c9ea"/></g></svg>